<svg xmlns="http://www.w3.org/2000/svg" width="42" height="42" viewBox="0 0 42 42">
  <g id="그룹_205078" data-name="그룹 205078" transform="translate(-1477 -2771)">
    <rect id="사각형_113630" data-name="사각형 113630" width="42" height="42" transform="translate(1477 2771)" fill="none"/>
    <g id="그룹_203238" data-name="그룹 203238" transform="translate(1479.641 2775.641)">
      <g id="그룹_203246" data-name="그룹 203246" transform="translate(0 0)">
        <path id="패스_54859" data-name="패스 54859" d="M12.988,6.292H4.162A3.163,3.163,0,0,0,1,9.454V29.094l4.709-6.832H19.45A3.163,3.163,0,0,0,22.613,19.1V15.069H16.151a3.162,3.162,0,0,1-3.162-3.161Z" transform="translate(0.359 2.258)" fill="#fff"/>
        <path id="패스_54861" data-name="패스 54861" d="M9.821,4.162V8.193h6.462a3.163,3.163,0,0,1,3.162,3.162V16.97h7.279L31.434,23.8V4.162A3.163,3.163,0,0,0,28.271,1H12.983A3.163,3.163,0,0,0,9.821,4.162" transform="translate(3.526 0.358)" fill="#fff"/>
        <path id="패스_54863" data-name="패스 54863" d="M9.821,6.292v5.616a3.162,3.162,0,0,0,3.162,3.161h6.462V9.454a3.163,3.163,0,0,0-3.162-3.162Z" transform="translate(3.526 2.258)" fill="#fff"/>
        <g id="그룹_205077" data-name="그룹 205077">
          <path id="패스_54860" data-name="패스 54860" d="M12.988,6.292H4.162A3.163,3.163,0,0,0,1,9.454V29.094l4.709-6.832H19.45A3.163,3.163,0,0,0,22.613,19.1V15.069H16.151a3.162,3.162,0,0,1-3.162-3.161Z" transform="translate(0.359 2.258)" fill="none" stroke="#222" stroke-linecap="round" stroke-linejoin="round" stroke-width="2"/>
          <path id="패스_54862" data-name="패스 54862" d="M9.821,4.162V8.193h6.462a3.163,3.163,0,0,1,3.162,3.162V16.97h7.279L31.434,23.8V4.162A3.163,3.163,0,0,0,28.271,1H12.983A3.163,3.163,0,0,0,9.821,4.162Z" transform="translate(3.525 0.358)" fill="none" stroke="#222" stroke-linecap="round" stroke-linejoin="round" stroke-width="2"/>
          <path id="패스_54864" data-name="패스 54864" d="M9.821,6.292v6.994a3.938,3.938,0,0,0,3.939,3.937h8.049V10.231A3.939,3.939,0,0,0,17.87,6.292Z" transform="translate(2.346 1.182)" fill="#61b0f5"/>
        </g>
      </g>
    </g>
  </g>
</svg>
