<svg xmlns="http://www.w3.org/2000/svg" xmlns:xlink="http://www.w3.org/1999/xlink" width="49.197" height="54.87" viewBox="0 0 49.197 54.87">
  <defs>
    <clipPath id="clip-path">
      <rect id="사각형_113609" data-name="사각형 113609" width="49.197" height="28.397" fill="#18ebed"/>
    </clipPath>
  </defs>
  <g id="그룹_203222" data-name="그룹 203222" transform="translate(-23.358 -945)">
    <path id="패스_54898" data-name="패스 54898" d="M19.356,0A19.566,19.566,0,0,1,38.713,19.768,19.566,19.566,0,0,1,19.356,39.537,19.566,19.566,0,0,1,0,19.768,19.566,19.566,0,0,1,19.356,0Z" transform="translate(28.829 945)" fill="#61b0f5"/>
    <g id="그룹_203220" data-name="그룹 203220" transform="translate(23.358 971.473)">
      <g id="그룹_203219" data-name="그룹 203219" transform="translate(0 0)" clip-path="url(#clip-path)">
        <path id="패스_54834" data-name="패스 54834" d="M49.053,18.04l-9.731-16.9s-2.434-2.561-4.8,0c0,0-3.9,5.122-10.051,4.61a12.991,12.991,0,0,1-9.731-4.1A2.925,2.925,0,0,0,10.64.626s0-.512-1.537,1.537L.141,18.04S-.628,20.6,1.421,20.6H9.616l4.1,6.658s1.684,2.561,3.147,0L24.526,14.2,31.9,27.515a1.809,1.809,0,0,0,2.561.512l4.61-7.17H47.26s2.561-.512,1.793-2.817" transform="translate(0 0)" fill="#18ebed"/>
      </g>
    </g>
    <path id="교차_1" data-name="교차 1" d="M0,3.858l.958-1.7C2.494.114,2.494.625,2.494.625a2.926,2.926,0,0,1,4.1,1.025,12.991,12.991,0,0,0,9.731,4.1c6.146.512,10.05-4.61,10.05-4.61A3.106,3.106,0,0,1,28.633,0h.075a3.91,3.91,0,0,1,2.468,1.138l1.643,2.854a19.511,19.511,0,0,1-16.366,8.87A19.514,19.514,0,0,1,0,3.858Z" transform="translate(31.548 971.473)" fill="#126fa7"/>
    <path id="다각형_154" data-name="다각형 154" d="M8.17,1.537a.8.8,0,0,1,1.448,0l1.757,3.731A.8.8,0,0,0,12,5.721l4.1.514a.8.8,0,0,1,.447,1.378l-3.009,2.816a.8.8,0,0,0-.239.735l.776,4.045a.8.8,0,0,1-1.171.852l-3.62-1.989a.8.8,0,0,0-.77,0L4.889,16.06a.8.8,0,0,1-1.171-.852l.776-4.045a.8.8,0,0,0-.239-.735L1.246,7.613a.8.8,0,0,1,.447-1.378l4.1-.514a.8.8,0,0,0,.624-.453Z" transform="translate(38.907 953.849)" fill="#fff"/>
  </g>
</svg>
