<svg xmlns="http://www.w3.org/2000/svg" width="24" height="24" viewBox="0 0 24 24">
  <g id="그룹_202567" data-name="그룹 202567" transform="translate(-5173 -5380)">
    <rect id="bg" width="24" height="24" transform="translate(5173 5380)" fill="none"/>
    <g id="like_off" transform="translate(3815.055 4488.884)" fill="none">
      <path d="M1369.945,913.116l-1.6-1.439c-5.665-5.09-9.405-8.446-9.405-12.566a5.964,5.964,0,0,1,6.05-5.995,6.517,6.517,0,0,0,9.9,0,5.964,5.964,0,0,1,6.05,5.995c0,4.12-3.74,7.477-9.4,12.577Z" stroke="none"/>
      <path d="M 1369.947631835938 911.7713623046875 L 1370.91455078125 910.9054565429688 C 1376.3525390625 906.0094604492188 1379.945068359375 902.7749633789062 1379.945068359375 899.1105346679688 C 1379.945068359375 896.3097534179688 1377.726928710938 894.1157836914062 1374.895141601562 894.1157836914062 C 1373.308959960938 894.1157836914062 1371.741943359375 894.8372192382812 1370.703491210938 896.045654296875 L 1369.945190429688 896.9281005859375 L 1369.186767578125 896.0457763671875 C 1368.14794921875 894.8372802734375 1366.580932617188 894.1157836914062 1364.9951171875 894.1157836914062 C 1362.163208007812 894.1157836914062 1359.944946289062 896.3097534179688 1359.944946289062 899.1105346679688 C 1359.944946289062 902.78125 1363.548706054688 906.0189819335938 1369.003540039062 910.9198608398438 L 1369.947631835938 911.7713623046875 M 1369.945068359375 913.1157836914062 L 1368.349975585938 911.677001953125 C 1362.68505859375 906.58740234375 1358.944946289062 903.230712890625 1358.944946289062 899.1105346679688 C 1358.944946289062 895.7537841796875 1361.60693359375 893.1157836914062 1364.9951171875 893.1157836914062 C 1366.909057617188 893.1157836914062 1368.745971679688 893.9989624023438 1369.945068359375 895.3939208984375 C 1371.143798828125 893.9989624023438 1372.981201171875 893.1157836914062 1374.895141601562 893.1157836914062 C 1378.283203125 893.1157836914062 1380.945068359375 895.7537841796875 1380.945068359375 899.1105346679688 C 1380.945068359375 903.230712890625 1377.205078125 906.58740234375 1371.540283203125 911.6876220703125 L 1369.945068359375 913.1157836914062 Z" stroke="none" fill="#fff"/>
    </g>
  </g>
</svg>
