<svg xmlns="http://www.w3.org/2000/svg" width="24" height="24" viewBox="0 0 24 24">
  <g id="그룹_179279" data-name="그룹 179279" transform="translate(-301 -2580)">
    <path id="패스_53583" data-name="패스 53583" d="M12,0A12,12,0,1,1,0,12,12,12,0,0,1,12,0Z" transform="translate(301 2580)" fill="#222" opacity="0"/>
    <path id="패스_53581" data-name="패스 53581" d="M-10377-2376.85a.747.747,0,0,1-.53-.22l-6-6a.75.75,0,0,1-.22-.53.75.75,0,0,1,.22-.53l6-6a.75.75,0,0,1,1.061,0,.75.75,0,0,1,0,1.061l-5.47,5.47,5.47,5.469a.75.75,0,0,1,0,1.061A.747.747,0,0,1-10377-2376.85Z" transform="translate(10691.5 4976.1)" fill="#222"/>
  </g>
</svg>
