<svg xmlns="http://www.w3.org/2000/svg" width="18" height="16.236" viewBox="0 0 18 16.236">
  <g id="like_on" transform="translate(-1358.945 -893.116)" fill="none">
    <path d="M1367.945,909.352l-1.305-1.168c-4.635-4.132-7.695-6.857-7.695-10.2a4.861,4.861,0,0,1,4.95-4.867,5.359,5.359,0,0,0,8.1,0,4.861,4.861,0,0,1,4.95,4.867c0,3.345-3.06,6.07-7.695,10.21Z" stroke="none"/>
    <path d="M 1367.947387695312 908.012451171875 L 1368.618774414062 907.4158935546875 C 1373.030395507812 903.474853515625 1375.94482421875 900.8712768554688 1375.94482421875 897.982421875 C 1375.94482421875 895.814208984375 1374.209838867188 894.1157836914062 1371.994873046875 894.1157836914062 C 1370.747924804688 894.1157836914062 1369.516479492188 894.6780395507812 1368.70068359375 895.619873046875 L 1367.944946289062 896.4925537109375 L 1367.18896484375 895.6199951171875 C 1366.373046875 894.6781005859375 1365.1416015625 894.1157836914062 1363.894897460938 894.1157836914062 C 1361.679931640625 894.1157836914062 1359.94482421875 895.814208984375 1359.94482421875 897.982421875 C 1359.94482421875 900.876220703125 1362.868286132812 903.4823608398438 1367.29345703125 907.42724609375 L 1367.947387695312 908.012451171875 M 1367.94482421875 909.3522338867188 L 1366.639770507812 908.1842041015625 C 1362.0048828125 904.0523681640625 1358.94482421875 901.3272705078125 1358.94482421875 897.982421875 C 1358.94482421875 895.25732421875 1361.122802734375 893.1157836914062 1363.894897460938 893.1157836914062 C 1365.460815429688 893.1157836914062 1366.963745117188 893.8327026367188 1367.94482421875 894.9652099609375 C 1368.925659179688 893.8327026367188 1370.428955078125 893.1157836914062 1371.994873046875 893.1157836914062 C 1374.766967773438 893.1157836914062 1376.94482421875 895.25732421875 1376.94482421875 897.982421875 C 1376.94482421875 901.3272705078125 1373.884887695312 904.0523681640625 1369.25 908.19287109375 L 1367.94482421875 909.3522338867188 Z" stroke="none" fill="#898d9c"/>
  </g>
</svg>
