<svg id="ico_delete_32" xmlns="http://www.w3.org/2000/svg" width="32" height="32" viewBox="0 0 32 32">
  <rect id="사각형_112190" data-name="사각형 112190" width="32" height="32" fill="#585d72" opacity="0"/>
  <g id="icon">
    <path id="선_3" data-name="선 3" d="M12,12.5a.5.5,0,0,1-.354-.146l-12-12a.5.5,0,0,1,0-.707.5.5,0,0,1,.707,0l12,12A.5.5,0,0,1,12,12.5Z" transform="translate(10 10)" fill="#898d9c"/>
    <path id="선_4" data-name="선 4" d="M0,12.5a.5.5,0,0,1-.354-.146.5.5,0,0,1,0-.707l12-12a.5.5,0,0,1,.707,0,.5.5,0,0,1,0,.707l-12,12A.5.5,0,0,1,0,12.5Z" transform="translate(10 10)" fill="#898d9c"/>
  </g>
</svg>
