<svg id="그룹_203714" data-name="그룹 203714" xmlns="http://www.w3.org/2000/svg" width="24" height="24" viewBox="0 0 24 24">
  <rect id="bg" width="24" height="24" fill="none"/>
  <g id="Comm_normal" transform="translate(-1406.25 -890)" fill="none">
    <path d="M1425.25,893h-14a2.332,2.332,0,0,0-2,2v16l4-5h12a2.282,2.282,0,0,0,2-2v-9A2.068,2.068,0,0,0,1425.25,893Z" stroke="none"/>
    <path d="M 1411.307006835938 893.9998168945312 C 1410.860107421875 894.06494140625 1410.28759765625 894.55712890625 1410.25 895.030517578125 L 1410.25 908.1490478515625 L 1412.769287109375 905 L 1425.245361328125 905 C 1425.638549804688 904.9947509765625 1426.220703125 904.3980712890625 1426.25 903.9750366210938 L 1426.25 895.002685546875 C 1426.244873046875 894.49609375 1425.7529296875 893.9998779296875 1425.249877929688 893.9998168945312 L 1411.307006835938 893.9998168945312 M 1425.254760742188 892.9998168945312 C 1426.308715820312 892.9998779296875 1427.243774414062 893.9454345703125 1427.25 895 L 1427.25 904 C 1427.21240234375 904.952880859375 1426.193115234375 905.993408203125 1425.249877929688 906 L 1413.249877929688 906 L 1409.25 910.9998168945312 L 1409.25 895 C 1409.300048828125 893.9859008789062 1410.325805664062 893.086669921875 1411.25 892.9998168945312 L 1425.249877929688 892.9998168945312 C 1425.251586914062 892.9998168945312 1425.253051757812 892.9998168945312 1425.254760742188 892.9998168945312 Z" stroke="none" fill="#222"/>
  </g>
</svg>
