<svg xmlns="http://www.w3.org/2000/svg" width="24" height="24" viewBox="0 0 24 24">
  <g id="그룹_202636" data-name="그룹 202636" transform="translate(-5173)">
    <rect id="bg" width="24" height="24" transform="translate(5173)" fill="none"/>
    <g id="like_off" transform="translate(3816.055 -890.116)" fill="none">
      <path d="M1368.57,910.616l-1.4-1.259c-4.957-4.453-8.229-7.39-8.229-11a5.219,5.219,0,0,1,5.294-5.245,5.7,5.7,0,0,0,8.662,0,5.219,5.219,0,0,1,5.294,5.245c0,3.605-3.272,6.542-8.229,11Z" stroke="none"/>
      <path d="M 1368.572631835938 909.2713012695312 L 1369.334716796875 908.5888061523438 C 1374.067993164062 904.3272705078125 1377.195068359375 901.5119018554688 1377.195068359375 898.3612060546875 C 1377.195068359375 895.9805908203125 1375.30908203125 894.1157836914062 1372.9013671875 894.1157836914062 C 1371.549438476562 894.1157836914062 1370.213745117188 894.7307739257812 1369.328491210938 895.760986328125 L 1368.570190429688 896.6433715820312 L 1367.811767578125 895.7610473632812 C 1366.926147460938 894.7308349609375 1365.590576171875 894.1157836914062 1364.238891601562 894.1157836914062 C 1361.831176757812 894.1157836914062 1359.945068359375 895.9805908203125 1359.945068359375 898.3612060546875 C 1359.945068359375 901.517333984375 1363.081787109375 904.3355102539062 1367.829833984375 908.601318359375 L 1368.572631835938 909.2713012695312 M 1368.570068359375 910.61572265625 L 1367.174438476562 909.3568115234375 C 1362.217651367188 904.9034423828125 1358.945068359375 901.9663696289062 1358.945068359375 898.3612060546875 C 1358.945068359375 895.424072265625 1361.274291992188 893.1157836914062 1364.238891601562 893.1157836914062 C 1365.91357421875 893.1157836914062 1367.520874023438 893.8886108398438 1368.570068359375 895.1091918945312 C 1369.619018554688 893.8886108398438 1371.226684570312 893.1157836914062 1372.9013671875 893.1157836914062 C 1375.865966796875 893.1157836914062 1378.195068359375 895.424072265625 1378.195068359375 898.3612060546875 C 1378.195068359375 901.9663696289062 1374.922607421875 904.9034423828125 1369.965942382812 909.3660888671875 L 1368.570068359375 910.61572265625 Z" stroke="none" fill="#222"/>
    </g>
  </g>
</svg>
