<svg xmlns="http://www.w3.org/2000/svg" width="14.575" height="13.25" viewBox="0 0 14.575 13.25">
  <g id="like_off" transform="translate(-1358.945 -893.116)" fill="#fff">
    <path d="M 1366.234130859375 905.35693359375 L 1365.677856445312 904.855224609375 L 1365.666381835938 904.8448486328125 C 1362.070434570312 901.6140747070312 1359.69482421875 899.479736328125 1359.69482421875 897.0870361328125 C 1359.69482421875 895.2807006835938 1361.126098632812 893.86572265625 1362.953125 893.86572265625 C 1363.978515625 893.86572265625 1364.99169921875 894.332275390625 1365.663452148438 895.11376953125 L 1366.232299804688 895.7755126953125 L 1366.801025390625 895.1137084960938 C 1367.472534179688 894.332275390625 1368.48583984375 893.86572265625 1369.511596679688 893.86572265625 C 1371.33837890625 893.86572265625 1372.769409179688 895.2807006835938 1372.769409179688 897.0870361328125 C 1372.769409179688 899.4755859375 1370.401245117188 901.6078491210938 1366.816650390625 904.83544921875 L 1366.787353515625 904.86181640625 L 1366.234130859375 905.35693359375 Z" stroke="none"/>
    <path d="M 1366.236083984375 904.3486938476562 L 1366.314819335938 904.278076171875 C 1369.75 901.18505859375 1372.019409179688 899.1416625976562 1372.019409179688 897.0870361328125 C 1372.019409179688 896.4147338867188 1371.764404296875 895.7918090820312 1371.30126953125 895.3329467773438 C 1370.834594726562 894.8704223632812 1370.198974609375 894.61572265625 1369.511596679688 894.61572265625 C 1368.713500976562 894.61572265625 1367.892822265625 894.9938354492188 1367.369873046875 895.6024780273438 L 1366.232299804688 896.9262084960938 L 1365.094604492188 895.6026611328125 C 1364.571411132812 894.993896484375 1363.750732421875 894.61572265625 1362.953125 894.61572265625 C 1362.265625 894.61572265625 1361.6298828125 894.8704833984375 1361.162963867188 895.3330078125 C 1360.699829101562 895.7918701171875 1360.44482421875 896.414794921875 1360.44482421875 897.0870361328125 C 1360.44482421875 899.1453247070312 1362.721435546875 901.1907348632812 1366.167602539062 904.2869262695312 L 1366.236083984375 904.3486938476562 M 1366.232177734375 906.365234375 L 1365.175537109375 905.412109375 C 1361.422607421875 902.040283203125 1358.94482421875 899.816650390625 1358.94482421875 897.0870361328125 C 1358.94482421875 894.86328125 1360.70849609375 893.11572265625 1362.953125 893.11572265625 C 1364.220947265625 893.11572265625 1365.437866210938 893.7008056640625 1366.232177734375 894.6248779296875 C 1367.026245117188 893.7008056640625 1368.243530273438 893.11572265625 1369.511596679688 893.11572265625 C 1371.755981445312 893.11572265625 1373.519409179688 894.86328125 1373.519409179688 897.0870361328125 C 1373.519409179688 899.816650390625 1371.041870117188 902.040283203125 1367.289184570312 905.419189453125 L 1366.232177734375 906.365234375 Z" stroke="none" fill="#222"/>
  </g>
</svg>
