<svg id="그룹_203713" data-name="그룹 203713" xmlns="http://www.w3.org/2000/svg" width="24" height="24" viewBox="0 0 24 24">
  <rect id="bg" width="24" height="24" fill="none"/>
  <g id="like_off" transform="translate(-1355.945 -889.115)" fill="none">
    <path d="M1367.945,909.352l-1.305-1.168c-4.635-4.132-7.695-6.857-7.695-10.2a4.861,4.861,0,0,1,4.95-4.867,5.359,5.359,0,0,0,8.1,0,4.861,4.861,0,0,1,4.95,4.867c0,3.345-3.06,6.07-7.695,10.21Z" stroke="none"/>
    <path d="M 1367.948608398438 907.3425903320312 L 1368.28564453125 907.04296875 C 1372.596801757812 903.1917724609375 1375.44482421875 900.6474609375 1375.44482421875 897.982421875 C 1375.44482421875 896.0946044921875 1373.929443359375 894.6157836914062 1371.994873046875 894.6157836914062 C 1370.890869140625 894.6157836914062 1369.80078125 895.113525390625 1369.078735351562 895.9472045898438 L 1367.944946289062 897.2562866210938 L 1366.81103515625 895.9473876953125 C 1366.088745117188 895.1135864257812 1364.998657226562 894.6157836914062 1363.894897460938 894.6157836914062 C 1361.960327148438 894.6157836914062 1360.44482421875 896.0946044921875 1360.44482421875 897.982421875 C 1360.44482421875 900.652099609375 1363.3017578125 903.198974609375 1367.626220703125 907.0540161132812 L 1367.948608398438 907.3425903320312 M 1367.94482421875 909.3522338867188 L 1366.639770507812 908.1842041015625 C 1362.0048828125 904.0523681640625 1358.94482421875 901.3272705078125 1358.94482421875 897.982421875 C 1358.94482421875 895.25732421875 1361.122802734375 893.1157836914062 1363.894897460938 893.1157836914062 C 1365.460815429688 893.1157836914062 1366.963745117188 893.8327026367188 1367.94482421875 894.9652099609375 C 1368.925659179688 893.8327026367188 1370.428955078125 893.1157836914062 1371.994873046875 893.1157836914062 C 1374.766967773438 893.1157836914062 1376.94482421875 895.25732421875 1376.94482421875 897.982421875 C 1376.94482421875 901.3272705078125 1373.884887695312 904.0523681640625 1369.25 908.19287109375 L 1367.94482421875 909.3522338867188 Z" stroke="none" fill="#222"/>
  </g>
</svg>
