<svg xmlns="http://www.w3.org/2000/svg" width="22" height="20" viewBox="0 0 22 20">
  <g id="like_off" transform="translate(-1358.945 -893.116)" fill="none">
    <path d="M1369.945,913.116l-1.6-1.439c-5.665-5.09-9.405-8.446-9.405-12.566a5.964,5.964,0,0,1,6.05-5.995,6.517,6.517,0,0,0,9.9,0,5.964,5.964,0,0,1,6.05,5.995c0,4.12-3.74,7.477-9.4,12.577Z" stroke="none"/>
    <path d="M 1369.950073242188 910.4268798828125 L 1370.245361328125 910.1622924804688 C 1375.484130859375 905.4456787109375 1378.945068359375 902.3297119140625 1378.945068359375 899.1105346679688 C 1378.945068359375 898.024658203125 1378.532348632812 897.0177001953125 1377.782836914062 896.2750244140625 C 1377.028442382812 895.5274658203125 1376.0029296875 895.1157836914062 1374.895141601562 895.1157836914062 C 1373.596435546875 895.1157836914062 1372.31298828125 895.70703125 1371.4619140625 896.6973876953125 L 1369.9453125 898.4623413085938 L 1368.428344726562 896.6976318359375 C 1367.576904296875 895.7071533203125 1366.29345703125 895.1157836914062 1364.9951171875 895.1157836914062 C 1363.88720703125 895.1157836914062 1362.861572265625 895.5274658203125 1362.107177734375 896.2750244140625 C 1361.357666015625 897.0177001953125 1360.944946289062 898.0247192382812 1360.944946289062 899.1105346679688 C 1360.944946289062 902.3353881835938 1364.416748046875 905.4545288085938 1369.671875 910.176025390625 L 1369.950073242188 910.4268798828125 M 1369.945068359375 913.1157836914062 L 1368.349975585938 911.677001953125 C 1362.68505859375 906.58740234375 1358.944946289062 903.230712890625 1358.944946289062 899.1105346679688 C 1358.944946289062 895.7537841796875 1361.60693359375 893.1157836914062 1364.9951171875 893.1157836914062 C 1366.909057617188 893.1157836914062 1368.745971679688 893.9989624023438 1369.945068359375 895.3939208984375 C 1371.143798828125 893.9989624023438 1372.981201171875 893.1157836914062 1374.895141601562 893.1157836914062 C 1378.283203125 893.1157836914062 1380.945068359375 895.7537841796875 1380.945068359375 899.1105346679688 C 1380.945068359375 903.230712890625 1377.205078125 906.58740234375 1371.540283203125 911.6876220703125 L 1369.945068359375 913.1157836914062 Z" stroke="none" fill="#fff"/>
  </g>
</svg>
