<svg xmlns="http://www.w3.org/2000/svg" width="18.66" height="15.293" viewBox="0 0 18.66 15.293">
  <g id="icon" transform="translate(0.25 0.25)">
    <g id="Ellipse_1" data-name="Ellipse 1" transform="translate(8 0.368)" fill="none" stroke="#222" stroke-width="1.5">
      <circle cx="3" cy="3" r="3" stroke="none"/>
      <circle cx="3" cy="3" r="2.25" fill="none"/>
    </g>
    <g id="Rounded_Rectangle_1" data-name="Rounded Rectangle 1" transform="translate(-676.091 -929.081)" fill="none">
      <path d="M687.3,936.265c3.98,0,7.2,2.592,7.2,5.672v2.188c0-.048-14.362-.063-14.41,0v-2.188C680.091,938.857,683.317,936.265,687.3,936.265Z" stroke="none"/>
      <path d="M 687.2960205078125 937.7646484375 C 684.20361328125 937.7646484375 681.5910034179688 939.675048828125 681.5910034179688 941.936279296875 L 681.5910034179688 942.5960083007812 C 681.747802734375 942.5948486328125 681.9159545898438 942.59375 682.0952758789062 942.5927734375 C 683.2342529296875 942.5863647460938 684.8377075195312 942.5828857421875 686.6103515625 942.5828857421875 C 688.548828125 942.5828857421875 690.5110473632812 942.5869750976562 691.9938354492188 942.5941772460938 C 692.3683471679688 942.595947265625 692.7047119140625 942.597900390625 693.0009765625 942.6000366210938 L 693.0009765625 941.936279296875 C 693.0009765625 939.675048828125 690.388427734375 937.7646484375 687.2960205078125 937.7646484375 M 687.2960205078125 936.2646484375 C 691.275634765625 936.2646484375 694.5009765625 938.8565063476562 694.5009765625 941.936279296875 L 694.5009765625 944.1245727539062 C 694.5009765625 944.0765991210938 680.1394653320312 944.0619506835938 680.0910034179688 944.1245727539062 L 680.0910034179688 941.936279296875 C 680.0910034179688 938.8565063476562 683.3170166015625 936.2646484375 687.2960205078125 936.2646484375 Z" stroke="none" fill="#222"/>
    </g>
    <g id="_" data-name="+" transform="translate(0 0)">
      <path id="패스_13382" data-name="패스 13382" d="M2.5.5V2.895h0V.5Z" transform="translate(0.493 0.099)" fill="#222" stroke="#222" stroke-width="0.5"/>
      <path id="패스_13383" data-name="패스 13383" d="M3.592,0h-1.2V2.395H0v1.2H2.395V5.987h1.2V3.592H5.987v-1.2H3.592Z" fill="#222" stroke="#222" stroke-width="0.5"/>
    </g>
  </g>
</svg>
