<svg xmlns="http://www.w3.org/2000/svg" xmlns:xlink="http://www.w3.org/1999/xlink" width="19" height="17" viewBox="0 0 19 17">
  <defs>
    <clipPath id="clip">
      <use xlink:href="#fill"/>
    </clipPath>
    <clipPath id="clip-2">
      <use xlink:href="#fill-2"/>
    </clipPath>
  </defs>
  <g id="그룹_203060" data-name="그룹 203060" transform="translate(-1596.125 -227.667)">
    <g id="패스_54757" data-name="패스 54757" transform="translate(1597.125 228.667)" fill="none">
      <path d="M2,0H13a2,2,0,0,1,2,2V14a2,2,0,0,1-2,2H2a2,2,0,0,1-2-2V2A2,2,0,0,1,2,0Z" stroke="none"/>
      <path d="M 2 1.5 C 1.724300384521484 1.5 1.5 1.724300384521484 1.5 2 L 1.5 14 C 1.5 14.27569961547852 1.724300384521484 14.5 2 14.5 L 13 14.5 C 13.27569961547852 14.5 13.5 14.27569961547852 13.5 14 L 13.5 2 C 13.5 1.724300384521484 13.27569961547852 1.5 13 1.5 L 2 1.5 M 2 0 L 13 0 C 14.10457038879395 0 15 0.8954296112060547 15 2 L 15 14 C 15 15.10457038879395 14.10457038879395 16 13 16 L 2 16 C 0.8954296112060547 16 0 15.10457038879395 0 14 L 0 2 C 0 0.8954296112060547 0.8954296112060547 0 2 0 Z" stroke="none" fill="#222"/>
    </g>
    <g id="그룹_200539" data-name="그룹 200539" transform="translate(1596 227.667)">
      <g id="그룹_1766" data-name="그룹 1766" transform="translate(0)">
        <g id="그룹_904" data-name="그룹 904">
          <g id="그룹_200538" data-name="그룹 200538">
            <g id="사각형_1921" data-name="사각형 1921" transform="translate(0.125)" fill="none" stroke="rgba(204,204,204,0)" stroke-miterlimit="10" stroke-width="1">
              <rect width="19" height="17" stroke="none"/>
              <rect x="0.5" y="0.5" width="18" height="16" fill="none"/>
            </g>
          </g>
        </g>
      </g>
      <g id="주소록" transform="translate(0 1.062)">
        <g id="사각형_1923" data-name="사각형 1923" transform="translate(0.125 11.938) rotate(-90)" fill="none" stroke="#222" stroke-linecap="round" stroke-linejoin="round" stroke-width="2">
          <rect id="fill" width="1.5" height="3" rx="0.75" stroke="none"/>
          <path d="M0,1h1.5M1,0v3M1.5,2h-1.5M0.5,3v-3" fill="none" clip-path="url(#clip)"/>
        </g>
        <g id="사각형_1924" data-name="사각형 1924" transform="translate(0.125 4.938) rotate(-90)" fill="none" stroke="#222" stroke-linecap="round" stroke-linejoin="round" stroke-width="2">
          <rect id="fill-2" width="1.5" height="3" rx="0.75" stroke="none"/>
          <path d="M0,1h1.5M1,0v3M1.5,2h-1.5M0.5,3v-3" fill="none" clip-path="url(#clip-2)"/>
        </g>
        <rect id="사각형_1925" data-name="사각형 1925" width="16" height="1.5" transform="translate(4.125 15.938) rotate(-90)" fill="#222"/>
      </g>
    </g>
  </g>
</svg>
