<svg id="ico_setting_n" xmlns="http://www.w3.org/2000/svg" width="16" height="16" viewBox="0 0 16 16">
  <path id="패스_13440" data-name="패스 13440" d="M0,0H16V16H0Z" fill="none"/>
  <path id="패스_13442" data-name="패스 13442" d="M12.382,5.54h0l-.343-.687V4.738c.8-1.718.685-1.833.571-1.947L11.582,1.76a.4.4,0,0,0-.228-.115c-.114,0-.228,0-1.714.687H9.068V2.218C8.269.5,8.269.5,8.04.5H6.555c-.228,0-.228,0-.914,1.833v.115l-.571.115H4.956a7.606,7.606,0,0,0-1.828-.687c-.114,0-.114,0-.228.115L1.985,3.02c-.114.115-.228.115.571,1.833v.115l-.228.573H2.214C.5,6.341.5,6.341.5,6.57V7.945c0,.229,0,.229,1.828.916h.114l.228.573v.115c-.8,1.833-.8,1.833-.685,1.947l1.028,1.031a.4.4,0,0,0,.228.115c.114,0,.228,0,1.714-.687H5.07l.571.229V12.3c.685,1.718.8,1.718.914,1.718H8.04c.228,0,.228,0,.914-1.833v-.115l.571-.229H9.64a9.65,9.65,0,0,0,1.942.687c.114,0,.114,0,.228-.115l1.028-1.031c.114-.115.228-.229-.685-1.947V9.319l.228-.573H12.5c1.828-.687,1.828-.8,1.828-.916V6.456c-.114-.115-.114-.229-1.942-.916ZM7.355,9.663a2.52,2.52,0,1,1,2.513-2.52,2.467,2.467,0,0,1-2.513,2.52Zm0,0" transform="translate(0.645 0.645)" fill="none" stroke="#222" stroke-miterlimit="10" stroke-width="1.5"/>
</svg>
