<svg xmlns="http://www.w3.org/2000/svg" width="16" height="16" viewBox="0 0 16 16">
  <g id="그룹_203936" data-name="그룹 203936" transform="translate(-0.001)">
    <rect id="사각형_113738" data-name="사각형 113738" width="16" height="16" transform="translate(0.001)" fill="none"/>
    <g id="패스_54970" data-name="패스 54970" transform="translate(2.999 3)" fill="none">
      <path d="M5.271,0A5.271,5.271,0,1,1,0,5.271,5.271,5.271,0,0,1,5.271,0Z" stroke="none"/>
      <path d="M 5.270751953125 2.000001907348633 C 3.467251777648926 2.000001907348633 2.000001907348633 3.467251777648926 2.000001907348633 5.270751953125 C 2.000001907348633 7.074252128601074 3.467251777648926 8.541501998901367 5.270751953125 8.541501998901367 C 7.074252128601074 8.541501998901367 8.541501998901367 7.074252128601074 8.541501998901367 5.270751953125 C 8.541501998901367 3.467251777648926 7.074252128601074 2.000001907348633 5.270751953125 2.000001907348633 M 5.270751953125 1.9073486328125e-06 C 8.18171215057373 1.9073486328125e-06 10.54150199890137 2.35979175567627 10.54150199890137 5.270751953125 C 10.54150199890137 8.18171215057373 8.18171215057373 10.54150199890137 5.270751953125 10.54150199890137 C 2.35979175567627 10.54150199890137 1.9073486328125e-06 8.18171215057373 1.9073486328125e-06 5.270751953125 C 1.9073486328125e-06 2.35979175567627 2.35979175567627 1.9073486328125e-06 5.270751953125 1.9073486328125e-06 Z" stroke="none" fill="#299bff"/>
    </g>
  </g>
</svg>
