<svg xmlns="http://www.w3.org/2000/svg" width="18" height="18" viewBox="0 0 18 18">
  <g id="그룹_203838" data-name="그룹 203838" transform="translate(-1204 -1251)">
    <g id="그룹_203055" data-name="그룹 203055" transform="translate(-352)">
      <rect id="Contents_BG" data-name="Contents BG" width="18" height="18" rx="2" transform="translate(1556 1251)" fill="#ccced4"/>
    </g>
    <path id="패스_53504" data-name="패스 53504" d="M-856-22070a1,1,0,0,1-.707-.293l-3-3a1,1,0,0,1,0-1.414,1,1,0,0,1,1.414,0l2.261,2.262,4.794-5.23a1,1,0,0,1,1.413-.061,1,1,0,0,1,.061,1.412l-5.5,6a1,1,0,0,1-.715.324Z" transform="translate(2067.75 23334)" fill="#fff"/>
  </g>
</svg>
