<svg xmlns="http://www.w3.org/2000/svg" width="12" height="13.4" viewBox="0 0 12 13.4">
  <g id="그룹_205086" data-name="그룹 205086" transform="translate(0 0)">
    <path id="패스_13400" data-name="패스 13400" d="M9.3,1a1.222,1.222,0,0,1,.9.4,1.267,1.267,0,0,1,0,1.8L3.3,10.1H1.5V8.3L8.4,1.4A1.222,1.222,0,0,1,9.3,1m0-1A1.99,1.99,0,0,0,7.7.7L.5,7.9v2.7a.472.472,0,0,0,.5.5H3.7l7.2-7.2a2.234,2.234,0,0,0,0-3.2h0A1.99,1.99,0,0,0,9.3,0Z" fill="#585d72"/>
    <path id="패스_13401" data-name="패스 13401" d="M12,12.4H0v1H12Z" fill="#585d72"/>
  </g>
</svg>
