<svg xmlns="http://www.w3.org/2000/svg" width="17.647" height="16.392" viewBox="0 0 17.647 16.392">
  <path id="패스_21883" data-name="패스 21883" d="M971.058,551.652H954.764a.522.522,0,0,1-.486-.716l1.844-4.651v-4.412c0-.007,0-.114,0-.122a6.812,6.812,0,0,1,13.574.107v4.428l1.844,4.651a.522.522,0,0,1-.486.716Zm-15.525-1.044h14.755l-1.6-4.03a.523.523,0,0,1-.037-.192v-4.512a5.481,5.481,0,0,0-5.632-5.266l-.138,0a5.485,5.485,0,0,0-5.716,5.19l0,4.584a.5.5,0,0,1-.038.192Z" transform="translate(-954.088 -535.41)" fill="#222" stroke="#222" stroke-width="0.3"/>
</svg>
