<svg xmlns="http://www.w3.org/2000/svg" width="24" height="24" viewBox="0 0 24 24">
  <g id="그룹_202619" data-name="그룹 202619" transform="translate(-1557 14)">
    <g id="그룹_202613" data-name="그룹 202613" transform="translate(22 -23)">
      <g id="그룹_202615" data-name="그룹 202615" transform="translate(-46 -10)">
        <rect id="사각형_113520" data-name="사각형 113520" width="24" height="24" transform="translate(1581 19)" fill="#fff" opacity="0"/>
        <g id="like_off" transform="translate(226.055 -869.616)" fill="none">
          <path d="M1367.195,908.116l-1.2-1.079c-4.249-3.817-7.054-6.335-7.054-9.425a4.473,4.473,0,0,1,4.538-4.5,4.888,4.888,0,0,0,7.425,0,4.473,4.473,0,0,1,4.537,4.5c0,3.09-2.8,5.608-7.053,9.433Z" stroke="none"/>
          <path d="M 1367.19873046875 906.09912109375 L 1367.420288085938 905.9006958007812 C 1371.349243164062 902.3632202148438 1373.944946289062 900.0261840820312 1373.944946289062 897.61181640625 C 1373.944946289062 895.9318237304688 1372.61083984375 894.6157836914062 1370.907592773438 894.6157836914062 C 1369.93359375 894.6157836914062 1368.970947265625 895.0592651367188 1368.33251953125 895.8020629882812 L 1367.195068359375 897.1255493164062 L 1366.057373046875 895.8021240234375 C 1365.4189453125 895.0592651367188 1364.456298828125 894.6157836914062 1363.482543945312 894.6157836914062 C 1361.779174804688 894.6157836914062 1360.444946289062 895.9318237304688 1360.444946289062 897.61181640625 C 1360.444946289062 900.0304565429688 1363.048706054688 902.369873046875 1366.990112304688 905.9110107421875 L 1367.19873046875 906.09912109375 M 1367.194946289062 908.1157836914062 L 1365.998657226562 907.0366821289062 C 1361.75 903.219482421875 1358.944946289062 900.7019653320312 1358.944946289062 897.61181640625 C 1358.944946289062 895.09423828125 1360.94140625 893.1157836914062 1363.482543945312 893.1157836914062 C 1364.91796875 893.1157836914062 1366.295654296875 893.7781372070312 1367.194946289062 894.8243408203125 C 1368.094116210938 893.7781372070312 1369.472045898438 893.1157836914062 1370.907592773438 893.1157836914062 C 1373.448608398438 893.1157836914062 1375.444946289062 895.09423828125 1375.444946289062 897.61181640625 C 1375.444946289062 900.7019653320312 1372.640014648438 903.219482421875 1368.391479492188 907.044677734375 L 1367.194946289062 908.1157836914062 Z" stroke="none" fill="#585a5e"/>
        </g>
      </g>
    </g>
  </g>
</svg>
