<svg xmlns="http://www.w3.org/2000/svg" width="18" height="18" viewBox="0 0 18 18">
  <g id="패스_13403" data-name="패스 13403" fill="#fff">
    <path d="M 9 16 C 5.140190124511719 16 2 12.85980987548828 2 9 C 2 5.140190124511719 5.140190124511719 2 9 2 C 12.85980987548828 2 16 5.140190124511719 16 9 C 16 12.85980987548828 12.85980987548828 16 9 16 Z" stroke="none"/>
    <path d="M 9 4 C 6.242989540100098 4 4 6.242989540100098 4 9 C 4 11.75700950622559 6.242989540100098 14 9 14 C 11.75700950622559 14 14 11.75700950622559 14 9 C 14 6.242989540100098 11.75700950622559 4 9 4 M 9 0 C 13.97056007385254 0 18 4.029439926147461 18 9 C 18 13.97056007385254 13.97056007385254 18 9 18 C 4.029439926147461 18 0 13.97056007385254 0 9 C 0 4.029439926147461 4.029439926147461 0 9 0 Z" stroke="none" fill="#d6dbe2"/>
  </g>
</svg>
