<svg id="ico_calendar" xmlns="http://www.w3.org/2000/svg" width="16" height="16" viewBox="0 0 16 16">
  <rect id="사각형_64" data-name="사각형 64" width="16" height="16" fill="none"/>
  <g id="사각형_40" data-name="사각형 40" transform="translate(1 2)" fill="none" stroke="#222" stroke-width="1">
    <rect width="14" height="13" rx="1" stroke="none"/>
    <rect x="0.5" y="0.5" width="13" height="12" rx="0.5" fill="none"/>
  </g>
  <g id="사각형_41" data-name="사각형 41" transform="translate(1 4)" fill="none" stroke="#222" stroke-width="1">
    <rect width="14" height="1" stroke="none"/>
    <rect x="0.5" y="0.5" width="13" fill="none"/>
  </g>
  <g id="합치기_2" data-name="합치기 2" transform="translate(4)" fill="none">
    <path d="M7,2V0H8V2ZM0,2V0H1V2Z" stroke="none"/>
    <path d="M 8 2 L 7.000110149383545 2 L 7.000110149383545 0 L 8 0 L 8 2 Z M 0.9998900294303894 2 L 0 2 L 0 0 L 0.9998900294303894 0 L 0.9998900294303894 2 Z" stroke="none" fill="#222"/>
  </g>
  <g id="합치기_1" data-name="합치기 1" transform="translate(4 7)" fill="none">
    <path d="M6,5V3H8V5ZM3,5V3H5V5ZM0,5V3H2V5ZM6,2V0H8V2ZM3,2V0H5V2ZM0,2V0H2V2Z" stroke="none"/>
    <path d="M 8 5 L 6.000229835510254 5 L 6.000229835510254 2.999459743499756 L 8 2.999459743499756 L 8 5 Z M 5.000339984893799 5 L 2.999660015106201 5 L 2.999660015106201 2.999459743499756 L 5.000339984893799 2.999459743499756 L 5.000339984893799 5 Z M 1.999780058860779 5 L 0 5 L 0 2.999459743499756 L 1.999780058860779 2.999459743499756 L 1.999780058860779 5 Z M 8 1.999639749526978 L 6.000229835510254 1.999639749526978 L 6.000229835510254 -2.384185791015625e-07 L 8 -2.384185791015625e-07 L 8 1.999639749526978 Z M 5.000339984893799 1.999639749526978 L 2.999660015106201 1.999639749526978 L 2.999660015106201 -2.384185791015625e-07 L 5.000339984893799 -2.384185791015625e-07 L 5.000339984893799 1.999639749526978 Z M 1.999780058860779 1.999639749526978 L 0 1.999639749526978 L 0 -2.384185791015625e-07 L 1.999780058860779 -2.384185791015625e-07 L 1.999780058860779 1.999639749526978 Z" stroke="none" fill="#222"/>
  </g>
</svg>
