<svg xmlns="http://www.w3.org/2000/svg" width="15.616" height="15.616" viewBox="0 0 15.616 15.616">
  <g id="그룹_203065" data-name="그룹 203065" transform="translate(-526.25 -1610.25)">
    <path id="패스_54764" data-name="패스 54764" d="M7.058-16A7.066,7.066,0,0,0,0-8.942,7.066,7.066,0,0,0,7.058-1.884a7.066,7.066,0,0,0,7.058-7.058A7.066,7.066,0,0,0,7.058-16" transform="translate(527 1627)" fill="none" stroke="#222" stroke-width="1.5" fill-rule="evenodd"/>
    <path id="패스_54765" data-name="패스 54765" d="M8.9-4.739H6.694a.543.543,0,0,1-.543-.543.543.543,0,0,1,.543-.543h.563V-9.081H6.722a.543.543,0,0,1-.543-.543.543.543,0,0,1,.543-.543H7.8a.543.543,0,0,1,.543.543v3.8H8.9a.543.543,0,0,1,.543.543.542.542,0,0,1-.542.543M7.713-12.5a.814.814,0,0,1,.814.814.814.814,0,0,1-.814.814.814.814,0,0,1-.814-.814.814.814,0,0,1,.814-.814" transform="translate(526.259 1626.588)" fill="#222" stroke="#222" stroke-width="0.5" fill-rule="evenodd"/>
  </g>
</svg>
