<svg width="42.413" height="42.413" xmlns="http://www.w3.org/2000/svg">
 <defs>
  <clipPath id="clip-path">
   <rect fill="none" height="42.413" width="115.841" data-name="사각형 113494" id="사각형_113494"/>
  </clipPath>
 </defs>
 <g>
  <title>Layer 1</title>
  <g clip-path="url(#clip-path)" data-name="그룹 200438" id="그룹_200438">
   <path fill="#4c94bb" d="m21.422,5.1l3.134,0l0,-5.1l-3.134,0a7.583,7.583 0 1 0 0,15.165l3.134,0l0,-5.1l-3.134,0a2.483,2.483 0 0 1 0,-4.966" data-name="패스 54691" id="패스_54691"/>
   <path fill="#de0d09" d="m27.858,15.165l-3.3,0l0,5.365l3.3,0a2.614,2.614 0 0 1 0,5.227l-3.3,0l0,5.373l3.3,0a7.989,7.989 0 0 0 7.985,-7.984l0,0a7.983,7.983 0 0 0 -7.981,-7.982" data-name="패스 54692" id="패스_54692"/>
   <path fill="#98887f" d="m19.189,31.131l0,3.3a2.613,2.613 0 1 1 -5.225,0l0,-3.3l-5.372,0l0,3.3a7.983,7.983 0 1 0 15.966,0l0,-3.3l-5.369,0z" data-name="패스 54693" id="패스_54693"/>
  </g>
 </g>
</svg>