<svg xmlns="http://www.w3.org/2000/svg" xmlns:xlink="http://www.w3.org/1999/xlink" width="115.841" height="42.413" viewBox="0 0 115.841 42.413">
  <defs>
    <clipPath id="clip-path">
      <rect id="사각형_113494" data-name="사각형 113494" width="115.841" height="42.413" fill="none"/>
    </clipPath>
  </defs>
  <g id="그룹_200438" data-name="그룹 200438" clip-path="url(#clip-path)">
    <path id="패스_54691" data-name="패스 54691" d="M91.954,5.1h3.134V0H91.954a7.583,7.583,0,1,0,0,15.165h3.134v-5.1H91.954a2.483,2.483,0,0,1,0-4.966" transform="translate(9.468 0)" fill="#4c94bb"/>
    <path id="패스_54692" data-name="패스 54692" d="M97.308,13.635h-3.3V19h3.3a2.614,2.614,0,0,1,0,5.227h-3.3V29.6h3.3a7.989,7.989,0,0,0,7.985-7.984h0a7.983,7.983,0,0,0-7.981-7.982" transform="translate(10.55 1.53)" fill="#de0d09"/>
    <path id="패스_54693" data-name="패스 54693" d="M90.25,27.99v3.3a2.613,2.613,0,1,1-5.225,0v-3.3H79.653v3.3a7.983,7.983,0,1,0,15.966,0v-3.3Z" transform="translate(8.939 3.141)" fill="#98887f"/>
    <path id="패스_54694" data-name="패스 54694" d="M3.661,23.507a2.024,2.024,0,0,1-1.58-.622,2.5,2.5,0,0,1-.568-1.746,2.634,2.634,0,0,1,.531-1.766,1.868,1.868,0,0,1,1.5-.615,6.08,6.08,0,0,1,1.922.4l.075.027V18.034l-.044-.011a8.864,8.864,0,0,0-2.067-.245,3.47,3.47,0,0,0-2.536.875A3.369,3.369,0,0,0,0,21.156a3.386,3.386,0,0,0,.885,2.485,3.324,3.324,0,0,0,2.465.892,5.379,5.379,0,0,0,2.212-.416L5.6,24.1V23l-.081.041a4.149,4.149,0,0,1-1.855.463" transform="translate(0 1.995)" fill="#636162"/>
    <path id="패스_54695" data-name="패스 54695" d="M9.893,20.487h-2.5V17.92H5.963v6.44H7.392V21.475h2.5v2.884h1.429V17.92H9.893Z" transform="translate(0.669 2.011)" fill="#636162"/>
    <path id="패스_54696" data-name="패스 54696" d="M17.389,18.693a3.16,3.16,0,0,0-2.378-.914,3.16,3.16,0,0,0-2.38.914,3.388,3.388,0,0,0-.885,2.461,3.414,3.414,0,0,0,.881,2.455,3.083,3.083,0,0,0,2.346.924,3.222,3.222,0,0,0,2.417-.911,3.406,3.406,0,0,0,.884-2.477,3.374,3.374,0,0,0-.884-2.452m-1.109,4.213a1.52,1.52,0,0,1-1.292.641,1.476,1.476,0,0,1-1.251-.65,2.909,2.909,0,0,1-.478-1.746A2.867,2.867,0,0,1,13.74,19.4a1.572,1.572,0,0,1,2.538,0,2.837,2.837,0,0,1,.486,1.735,2.9,2.9,0,0,1-.484,1.767" transform="translate(1.318 1.995)" fill="#636162"/>
    <path id="패스_54697" data-name="패스 54697" d="M23.65,18.716a3.111,3.111,0,0,0-2.291-.8H18.58v6.44h2.662a3.118,3.118,0,0,0,2.362-.883,3.429,3.429,0,0,0,.848-2.469,3.106,3.106,0,0,0-.8-2.291m-1.209,4.075a1.913,1.913,0,0,1-1.5.556h-.926V18.9h.737a3.2,3.2,0,0,1,1.138.156,1.411,1.411,0,0,1,.652.552,2.546,2.546,0,0,1,.4,1.475,2.5,2.5,0,0,1-.5,1.708" transform="translate(2.085 2.011)" fill="#636162"/>
    <path id="패스_54698" data-name="패스 54698" d="M28.07,17.921H26.678l-2.507,6.438h1.081l.656-1.687h2.539l.656,1.687h1.473Zm-1.792,3.795.9-2.309.9,2.309Z" transform="translate(2.713 2.011)" fill="#636162"/>
    <path id="패스_54699" data-name="패스 54699" d="M34.7,22.111,31.858,17.92H30.611v6.439h1.17v-4.19l2.823,4.19h1.269V17.92H34.7Z" transform="translate(3.435 2.011)" fill="#636162"/>
    <path id="패스_54700" data-name="패스 54700" d="M40.435,21.389V23.48a2.505,2.505,0,0,1-.475.053,2,2,0,0,1-1.569-.63,2.48,2.48,0,0,1-.572-1.744,2.651,2.651,0,0,1,.533-1.778,1.868,1.868,0,0,1,1.508-.623,6.186,6.186,0,0,1,1.923.406l.077.024V18.034l-.042-.01a8.853,8.853,0,0,0-2.075-.246,3.494,3.494,0,0,0-2.54.874,3.345,3.345,0,0,0-.9,2.5,3.363,3.363,0,0,0,.9,2.506,3.5,3.5,0,0,0,2.556.879,8.269,8.269,0,0,0,2.063-.311l.046-.01V21.389Z" transform="translate(4.074 1.995)" fill="#636162"/>
    <path id="패스_54701" data-name="패스 54701" d="M45.1,17.921h.912v4.06a2.049,2.049,0,0,0,.4,1.456,1.49,1.49,0,0,0,1.1.4,1.682,1.682,0,0,0,.755-.156,1.039,1.039,0,0,0,.476-.5,2.847,2.847,0,0,0,.174-1.167v-4.09h.8V22a3.281,3.281,0,0,1-.258,1.513,1.9,1.9,0,0,1-.731.733,2.49,2.49,0,0,1-1.248.271,2.79,2.79,0,0,1-1.344-.281,1.91,1.91,0,0,1-.776-.773,3.33,3.33,0,0,1-.259-1.487Z" transform="translate(5.061 2.011)" fill="#636162"/>
    <path id="패스_54702" data-name="패스 54702" d="M50.692,24.354V17.921h.9l3.223,4.963V17.921H55.6v6.433H54.71l-3.231-4.963v4.963Z" transform="translate(5.689 2.011)" fill="#636162"/>
    <rect id="사각형_113492" data-name="사각형 113492" width="0.912" height="6.433" transform="translate(62.954 19.932)" fill="#636162"/>
    <path id="패스_54703" data-name="패스 54703" d="M60.737,24.354l-2.429-6.433h.915l1.989,5.27,1.924-5.27h.8L61.6,24.354Z" transform="translate(6.543 2.011)" fill="#636162"/>
    <path id="패스_54704" data-name="패스 54704" d="M64.146,24.354V17.921h3.6V18.6H65.059v2.064h2.256v.676H65.059v2.33h2.878v.682Z" transform="translate(7.199 2.011)" fill="#636162"/>
    <path id="패스_54705" data-name="패스 54705" d="M68.484,24.354V17.921H70.43a1.89,1.89,0,0,1,1.5.485,1.657,1.657,0,0,1,.413,1.111,1.855,1.855,0,0,1-.146.721,1.961,1.961,0,0,1-.415.635,2.176,2.176,0,0,1-.736.469l2.151,3.012H72.072L70.24,21.631h-.854v2.723Zm.9-3.4h.3a1.742,1.742,0,0,0,1.367-.419A1.409,1.409,0,0,0,71.4,19.6a1,1,0,0,0-.132-.523.876.876,0,0,0-.414-.351,2.309,2.309,0,0,0-.9-.127h-.576Z" transform="translate(7.685 2.011)" fill="#636162"/>
    <path id="패스_54706" data-name="패스 54706" d="M73.194,24.249v-.9a6.04,6.04,0,0,0,1.134.43,3.341,3.341,0,0,0,.665.076,1.217,1.217,0,0,0,.876-.3.957.957,0,0,0,.323-.722,1.1,1.1,0,0,0-.168-.588,2.564,2.564,0,0,0-.851-.647l-.443-.256a3.882,3.882,0,0,1-1.2-.922,1.533,1.533,0,0,1-.306-.926,1.6,1.6,0,0,1,.242-.855A1.729,1.729,0,0,1,74.12,18a2.1,2.1,0,0,1,1.03-.227,5.583,5.583,0,0,1,1.578.247v.835a8.427,8.427,0,0,0-.992-.34,2.451,2.451,0,0,0-.536-.059,1.084,1.084,0,0,0-.83.29.88.88,0,0,0-.269.6.839.839,0,0,0,.127.426,1.24,1.24,0,0,0,.343.369,6.869,6.869,0,0,0,.592.367l.462.26a3.834,3.834,0,0,1,1.2.93,1.649,1.649,0,0,1,.3.978,1.757,1.757,0,0,1-.573,1.306,2.36,2.36,0,0,1-1.693.551,5.048,5.048,0,0,1-.668-.044,8.674,8.674,0,0,1-1-.237" transform="translate(8.214 1.995)" fill="#636162"/>
    <rect id="사각형_113493" data-name="사각형 113493" width="0.914" height="6.433" transform="translate(86.589 19.932)" fill="#636162"/>
    <path id="패스_54707" data-name="패스 54707" d="M81.764,24.354V18.6H79.482v-.681H84.96V18.6H82.676v5.752Z" transform="translate(8.92 2.011)" fill="#636162"/>
    <path id="패스_54708" data-name="패스 54708" d="M86.692,24.354V21.668l-2.15-3.747h1.045l1.668,2.9,1.8-2.9h.85L87.6,21.65v2.7Z" transform="translate(9.487 2.011)" fill="#636162"/>
  </g>
</svg>
