<svg xmlns="http://www.w3.org/2000/svg" width="74" height="20" viewBox="0 0 74 20">
  <g id="그룹_206370" data-name="그룹 206370" transform="translate(-634 -632)">
    <rect id="사각형_114648" data-name="사각형 114648" width="74" height="20" transform="translate(634 632)" fill="none"/>
    <g id="그룹_206384" data-name="그룹 206384" transform="translate(638.971 633.665)">
      <g id="그룹_206385" data-name="그룹 206385" transform="translate(0 0)">
        <path id="패스_56806" data-name="패스 56806" d="M0,35.839a3,3,0,0,1,.173-.347,1.062,1.062,0,0,1,1.518-.3,4.872,4.872,0,0,0,2.435.678,3.856,3.856,0,0,0,1.027-.135.763.763,0,0,0,.6-.735.733.733,0,0,0-.51-.773c-.446-.161-.92-.247-1.378-.38a15.109,15.109,0,0,1-1.959-.611A2.531,2.531,0,0,1,.271,30.7a2.817,2.817,0,0,1,1.712-2.6,5.4,5.4,0,0,1,2.965-.393,5.137,5.137,0,0,1,2.089.612,1.137,1.137,0,0,1,.66,1.046,1.085,1.085,0,0,1-1.4,1.054,4.085,4.085,0,0,1-.584-.22,3.951,3.951,0,0,0-2.164-.33,1.662,1.662,0,0,0-.537.186.706.706,0,0,0-.02,1.268,5.272,5.272,0,0,0,1.155.381c.647.17,1.314.273,1.947.482A2.637,2.637,0,0,1,8,34.029a3.034,3.034,0,0,1-1.741,3.6,10.337,10.337,0,0,1-1.529.4c-.092.023-.186.037-.279.055H3.87c-.128-.018-.256-.044-.384-.053a6.232,6.232,0,0,1-2.1-.49A2.186,2.186,0,0,1,0,36.31Z" transform="translate(0 -21.877)" fill="#4876ef" fill-rule="evenodd"/>
        <path id="패스_56807" data-name="패스 56807" d="M182.242,28.674a4.732,4.732,0,0,1,2.343-.992,5.017,5.017,0,0,1,2.667.311,3.016,3.016,0,0,1,1.762,2.371,5.782,5.782,0,0,1,.11,1.063c.012,1.7.009,3.4,0,5.1a1.2,1.2,0,0,1-2.37.267,2.119,2.119,0,0,1-.033-.467q0-2.183,0-4.367c0-.061,0-.122,0-.183a1.6,1.6,0,0,0-2.143-1.765,5.114,5.114,0,0,0-.784.276.386.386,0,0,0-.257.424c.009,1.909,0,3.818.007,5.726a1.193,1.193,0,0,1-.716,1.2,1.209,1.209,0,0,1-1.692-1.142c-.006-1.569,0-3.138,0-4.707,0-.1,0-.209,0-.313a1.452,1.452,0,0,0-1.621-1.515,2.809,2.809,0,0,0-1.3.328.4.4,0,0,0-.242.406c.009,1.9.006,3.8,0,5.7a1.239,1.239,0,0,1-.8,1.281,1.226,1.226,0,0,1-1.625-1.207c-.008-1.037,0-2.074,0-3.112,0-1.238.007-2.476,0-3.713a1.057,1.057,0,0,1,.5-.972,5.442,5.442,0,0,1,5.092-.7,6.379,6.379,0,0,1,1.108.7" transform="translate(-138.817 -21.844)" fill="#4876ef" fill-rule="evenodd"/>
        <path id="패스_56808" data-name="패스 56808" d="M50.26,31.846a8.911,8.911,0,0,0-.064-1.024c-.111-.628-.588-.969-1.357-1.039a6.367,6.367,0,0,0-2.318.289,2.431,2.431,0,0,1-.771.083.912.912,0,0,1-.862-.679.992.992,0,0,1,.364-1.142,4.742,4.742,0,0,1,1.227-.479,7.653,7.653,0,0,1,3.548-.044,3.07,3.07,0,0,1,2.521,3.054c.046,1.725.016,3.452.018,5.177a.8.8,0,0,1-.436.7,6.352,6.352,0,0,1-2.364.863,6.979,6.979,0,0,1-3.412-.13,3.028,3.028,0,0,1-1.829-4.279,2.968,2.968,0,0,1,2.208-1.508,7.6,7.6,0,0,1,3.341.127c.041.01.082.015.186.033m-.015,2.543c0-.244.013-.489-.007-.731a.3.3,0,0,0-.155-.214,5.38,5.38,0,0,0-2.19-.251,1.594,1.594,0,0,0-1.044.485,1.2,1.2,0,0,0,.7,1.967,3.661,3.661,0,0,0,2.327-.2.5.5,0,0,0,.378-.608,2.851,2.851,0,0,1,0-.444" transform="translate(-34.939 -21.844)" fill="#4876ef" fill-rule="evenodd"/>
        <path id="패스_56809" data-name="패스 56809" d="M131.863,31.764a8.509,8.509,0,0,0-.117-1.093c-.13-.559-.6-.858-1.309-.923a6.363,6.363,0,0,0-2.293.276,2.757,2.757,0,0,1-.821.093.845.845,0,0,1-.813-.592,1.027,1.027,0,0,1,.17-1.08,1.26,1.26,0,0,1,.479-.348,7.351,7.351,0,0,1,4.889-.183,2.911,2.911,0,0,1,2.072,2.822c.073,1.356.031,2.717.039,4.076,0,.322-.017.646,0,.967a1,1,0,0,1-.583,1.015,7.128,7.128,0,0,1-2.593.831,6.984,6.984,0,0,1-2.9-.14,3.035,3.035,0,0,1-2.1-4.042,2.8,2.8,0,0,1,2.1-1.739,7.174,7.174,0,0,1,3.339.021q.165.037.332.068c.015,0,.033-.008.1-.029m-.027,2.565h.019c-.02-.292.063-.669-.089-.852s-.535-.2-.824-.247a3.588,3.588,0,0,0-2.029.081,1.156,1.156,0,0,0-.744.845,1.191,1.191,0,0,0,.971,1.456,3.668,3.668,0,0,0,2.369-.228.451.451,0,0,0,.331-.532,3.767,3.767,0,0,1,0-.521" transform="translate(-99.462 -21.808)" fill="#4876ef" fill-rule="evenodd"/>
        <path id="패스_56810" data-name="패스 56810" d="M270.954,33.058c0-1.124.013-2.249-.006-3.373a1.089,1.089,0,0,1,.609-1.061,7.168,7.168,0,0,1,3.636-.888,7.935,7.935,0,0,1,1.708.172,3.259,3.259,0,0,1,2.667,3.167c.068,1.846.054,3.694.047,5.541a1.167,1.167,0,0,1-1.257,1.211,1.238,1.238,0,0,1-1.167-1.293q0-2.275,0-4.55a1.756,1.756,0,0,0-1.97-1.936,4.115,4.115,0,0,0-1.6.342.367.367,0,0,0-.255.392c.008,1.918.006,3.835,0,5.752a1.186,1.186,0,0,1-.814,1.234,1.21,1.21,0,0,1-1.595-1.13c-.017-1.194,0-2.388,0-3.582Z" transform="translate(-214.259 -21.933)" fill="#4876ef" fill-rule="evenodd"/>
        <path id="패스_56811" data-name="패스 56811" d="M96.446,33.918c0,.906,0,1.812,0,2.718a1.2,1.2,0,0,1-.785,1.154,1.245,1.245,0,0,1-1.347-.3,1.087,1.087,0,0,1-.3-.757c0-2.013-.017-4.025.007-6.038a2.782,2.782,0,0,1,2.753-2.9,12.658,12.658,0,0,1,2.054.1,1.8,1.8,0,0,1,.739.3,1.071,1.071,0,0,1,.447,1.278,1.083,1.083,0,0,1-1.142.771c-.346-.024-.688-.1-1.033-.144-.91-.114-1.378.289-1.387,1.2-.008.871,0,1.742,0,2.614" transform="translate(-74.336 -21.969)" fill="#4876ef" fill-rule="evenodd"/>
        <path id="패스_56812" data-name="패스 56812" d="M250.406,1.737A1.737,1.737,0,1,1,248.669,0a1.737,1.737,0,0,1,1.737,1.737" transform="translate(-195.268 0)" fill="#4876ef" fill-rule="evenodd"/>
        <path id="패스_56813" data-name="패스 56813" d="M252.262,29.768a1.14,1.14,0,0,1-2.278,0V22.986a1.14,1.14,0,0,1,2.278,0Z" transform="translate(-197.681 -17.315)" fill="#4876ef" fill-rule="evenodd"/>
      </g>
    </g>
  </g>
</svg>
