<svg xmlns="http://www.w3.org/2000/svg" width="16" height="16" viewBox="0 0 16 16"><g transform="translate(-1615 -533)"><g transform="translate(1615 533)" fill="none" stroke="#fff" stroke-width="1.5"><rect width="16" height="16" rx="3" stroke="none"/><rect x="0.75" y="0.75" width="14.5" height="14.5" rx="2.25" fill="none"/></g></g><circle cx="2" cy="2" r="2" transform="translate(6 4)" fill="none" stroke="#fff" stroke-linecap="round" stroke-linejoin="round" stroke-width="1.5"/><g transform="translate(4 9)" fill="none" stroke="#fff" stroke-width="1.5"><path d="M2,0H6A2,2,0,0,1,8,2V4A0,0,0,0,1,8,4H0A0,0,0,0,1,0,4V2A2,2,0,0,1,2,0Z" stroke="none"/><path d="M2,.75H6A1.25,1.25,0,0,1,7.25,2V3.25a0,0,0,0,1,0,0H.75a0,0,0,0,1,0,0V2A1.25,1.25,0,0,1,2,.75Z" fill="none"/></g></svg>