<svg id="그룹_203101" data-name="그룹 203101" xmlns="http://www.w3.org/2000/svg" width="16" height="16" viewBox="0 0 16 16">
  <g id="그룹_203100" data-name="그룹 203100">
    <g id="사각형_1980" data-name="사각형 1980" fill="none" stroke="rgba(112,112,112,0)" stroke-width="1">
      <rect width="16" height="16" stroke="none"/>
      <rect x="0.5" y="0.5" width="15" height="15" fill="none"/>
    </g>
  </g>
  <g id="사각형_2811" data-name="사각형 2811" transform="translate(0 1)" fill="none" stroke="#585a5e" stroke-width="1.5">
    <path d="M1,0h9a1,1,0,0,1,1,1V14a0,0,0,0,1,0,0H2a2,2,0,0,1-2-2V1A1,1,0,0,1,1,0Z" stroke="none"/>
    <path d="M1,.75h9a.25.25,0,0,1,.25.25V13.25a0,0,0,0,1,0,0H2A1.25,1.25,0,0,1,.75,12V1A.25.25,0,0,1,1,.75Z" fill="none"/>
  </g>
  <g id="패스_54749" data-name="패스 54749" transform="translate(10 7)" fill="none">
    <path d="M-.331,0H4A1,1,0,0,1,5,1V7A1,1,0,0,1,4,8H1L-.8,7.4-.331,7Z" stroke="none"/>
    <path d="M 1.168946981430054 1.5 L 1.168946981430054 6.475406646728516 L 1.242894411087036 6.5 L 3.499997138977051 6.5 L 3.499997138977051 1.5 L 1.168946981430054 1.5 M -0.3310527801513672 0 L 3.999996900558472 0 C 4.552287101745605 0 4.999997138977051 0.4477200508117676 4.999997138977051 1 L 4.999997138977051 7 C 4.999997138977051 7.552279949188232 4.552287101745605 8 3.999996900558472 8 L 0.9999969005584717 8 L -0.7951631546020508 7.402969837188721 L -0.3310527801513672 7 L -0.3310527801513672 0 Z" stroke="none" fill="#585a5e"/>
  </g>
  <rect id="사각형_2814" data-name="사각형 2814" width="5" height="1.5" rx="0.75" transform="translate(3 5)" fill="#4b5058"/>
  <rect id="사각형_2815" data-name="사각형 2815" width="5" height="1.5" rx="0.75" transform="translate(3 8)" fill="#4b5058"/>
</svg>
