<svg id="그룹_205820" data-name="그룹 205820" xmlns="http://www.w3.org/2000/svg" width="16" height="16" viewBox="0 0 16 16">
  <rect id="사각형_17356" data-name="사각형 17356" width="16" height="16" fill="none"/>
  <g id="그룹_33420" data-name="그룹 33420" transform="translate(0.861 2.268)">
    <path id="패스_3123" data-name="패스 3123" d="M1647.624,4096.426l-3.209,1.469a2.716,2.716,0,0,1-1.2.285,2.557,2.557,0,0,1-1.2-.285l-3.209-1.469v2.78a3.253,3.253,0,0,0,.652,2.224c.7.857,1.955,1.257,3.761,1.257a4.916,4.916,0,0,0,3.761-1.257,3.256,3.256,0,0,0,.652-2.224Z" transform="translate(-1636.163 -4091.848)" fill="#fff" stroke="#585d72" stroke-width="1.5"/>
    <path id="패스_3124" data-name="패스 3124" d="M1648.894,4089.4l-5.736-2.569a2.594,2.594,0,0,0-2.045,0l-5.737,2.569c-.568.28-.568.67,0,.894l5.737,2.457a3.376,3.376,0,0,0,2.1,0l4.6-1.955v5.251a.455.455,0,0,0,.909,0v-5.585l.284-.112C1649.462,4090.074,1649.462,4089.684,1648.894,4089.4Z" transform="translate(-1634.95 -4086.625)" fill="#fff" stroke="#585d72" stroke-width="1.5"/>
    <path id="패스_56753" data-name="패스 56753" d="M15.193,4.294,12.5,5.58v5.395h2.514Z" transform="translate(-0.398 -0.197)" fill="#fff"/>
    <rect id="사각형_114474" data-name="사각형 114474" width="1.5" height="6" rx="0.75" transform="translate(12.885 3.465)" fill="#585d72"/>
  </g>
</svg>
