<svg id="그룹_2745" data-name="그룹 2745" xmlns="http://www.w3.org/2000/svg" width="16" height="16" viewBox="0 0 16 16">
  <g id="패스_54748" data-name="패스 54748" fill="#4b5058" opacity="0">
    <path d="M 15.25 15.25 L 0.75 15.25 L 0.75 0.75 L 15.25 0.75 L 15.25 15.25 Z" stroke="none"/>
    <path d="M 1.5 1.5 L 1.5 14.5 L 14.5 14.5 L 14.5 1.5 L 1.5 1.5 M 0 0 L 16 0 L 16 16 L 0 16 L 0 0 Z" stroke="none" fill="#707070"/>
  </g>
  <g id="icon_고객관리">
    <rect id="사각형_2482" data-name="사각형 2482" width="16" height="16" fill="none"/>
    <g id="그룹_2055" data-name="그룹 2055">
      <g id="사각형_2932" data-name="사각형 2932" fill="none" stroke="#585a5e" stroke-width="1.5">
        <rect width="16" height="16" rx="3" stroke="none"/>
        <rect x="0.75" y="0.75" width="14.5" height="14.5" rx="2.25" fill="none"/>
      </g>
    </g>
    <g id="그룹_2113" data-name="그룹 2113" transform="translate(4 4)">
      <circle id="타원_252" data-name="타원 252" cx="2" cy="2" r="2" transform="translate(2)" fill="none" stroke="#585a5e" stroke-linecap="round" stroke-linejoin="round" stroke-width="1.5"/>
      <g id="사각형_2875" data-name="사각형 2875" transform="translate(0 5)" fill="none" stroke="#585a5e" stroke-width="1.5">
        <path d="M2,0H6A2,2,0,0,1,8,2V4A0,0,0,0,1,8,4H0A0,0,0,0,1,0,4V2A2,2,0,0,1,2,0Z" stroke="none"/>
        <path d="M2,.75H6A1.25,1.25,0,0,1,7.25,2V3.25a0,0,0,0,1,0,0H.75a0,0,0,0,1,0,0V2A1.25,1.25,0,0,1,2,.75Z" fill="none"/>
      </g>
    </g>
  </g>
</svg>
