<svg xmlns="http://www.w3.org/2000/svg" width="24" height="24" viewBox="0 0 24 24">
  <g id="그룹_204036" data-name="그룹 204036" transform="translate(-1371 -471)">
    <g id="그룹_203851" data-name="그룹 203851" transform="translate(63 -279)">
      <rect id="사각형_113730" data-name="사각형 113730" width="24" height="24" transform="translate(1308 750)" fill="none"/>
    </g>
    <g id="그룹_203445" data-name="그룹 203445" transform="translate(692.798 -363.528)">
      <g id="그룹_203453" data-name="그룹 203453" transform="translate(690.202 839.205)">
        <g id="ico_LD" transform="translate(0 0)">
          <path id="패스_13400" data-name="패스 13400" d="M9.394.9a1.251,1.251,0,0,1,.922.41,1.3,1.3,0,0,1,0,1.844l-8.342,8.2H.13V9.514l8.342-8.2A1.251,1.251,0,0,1,9.394.9" transform="translate(-1.403 -0.903)" fill="#fff"/>
        </g>
      </g>
    </g>
    <path id="패스_54973" data-name="패스 54973" d="M4921.135,2393.816h-8.227s-1.759-.219-1.759,1.914v13.013s-.263,2.953,2.38,2.953h13.97s2.225.242,2.225-2.953v-6" transform="translate(-3537 -1919)" fill="none" stroke="#fff" stroke-linecap="round" stroke-width="2"/>
  </g>
</svg>
