<svg xmlns="http://www.w3.org/2000/svg" width="14" height="14" viewBox="0 0 14 14"><g transform="translate(9 -1)"><rect width="14" height="14" transform="translate(-9 1)" fill="none"/><g transform="translate(-10.369 2.631)"><path d="M-2246.131,485.369a6.507,6.507,0,0,1-6.5-6.5,6.507,6.507,0,0,1,6.5-6.5,6.507,6.507,0,0,1,6.5,6.5A6.507,6.507,0,0,1-2246.131,485.369Zm-.5-10.5a.5.5,0,0,0-.5.5v4a.5.5,0,0,0,.5.5h4a.5.5,0,0,0,.5-.5.5.5,0,0,0-.5-.5h-3.5v-3.5A.5.5,0,0,0-2246.63,474.869Z" transform="translate(2254 -473)" fill="#fff"/></g></g></svg>